<?xml version="1.0" encoding="UTF-8"?>
<svg width="281px" height="281px" viewBox="0 0 281 281" version="1.1" xmlns="http://www.w3.org/2000/svg" xmlns:xlink="http://www.w3.org/1999/xlink">
    <title>hero-mobile-app</title>
    <defs>
        <linearGradient x1="16.8566841%" y1="109.005615%" x2="67.1507574%" y2="19.4670092%" id="linearGradient-1">
            <stop stop-color="#CA36FF" offset="0%"></stop>
            <stop stop-color="#08B8F6" offset="100%"></stop>
        </linearGradient>
    </defs>
    <g id="Design" stroke="none" stroke-width="1" fill="none" fill-rule="evenodd">
        <g id="Service---mobile-app" transform="translate(-1008.000000, -252.000000)">
            <g id="hero-mobile-app" transform="translate(1008.000000, 252.000000)">
                <polygon id="Path" points="0 0 281 0 281 281 0 281"></polygon>
                <path d="M181.479167,11.7083333 L87.8125,11.7083333 C71.655,11.7083333 58.5416667,24.8216667 58.5416667,40.9791667 L58.5416667,240.020833 C58.5416667,256.178333 71.655,269.291667 87.8125,269.291667 L181.479167,269.291667 C197.636667,269.291667 210.75,256.178333 210.75,240.020833 L210.75,40.9791667 C210.75,24.8216667 197.636667,11.7083333 181.479167,11.7083333 Z M134.645833,257.583333 C124.927917,257.583333 117.083333,249.73875 117.083333,240.020833 C117.083333,230.302917 124.927917,222.458333 134.645833,222.458333 C144.36375,222.458333 152.208333,230.302917 152.208333,240.020833 C152.208333,249.73875 144.36375,257.583333 134.645833,257.583333 Z M187.333333,210.75 L81.9583333,210.75 L81.9583333,46.8333333 L187.333333,46.8333333 L187.333333,210.75 Z" id="Shape" fill="url(#linearGradient-1)"></path>
            </g>
        </g>
    </g>
</svg>