<?xml version="1.0" encoding="UTF-8"?>
<svg width="67px" height="91px" viewBox="0 0 67 91" version="1.1" xmlns="http://www.w3.org/2000/svg" xmlns:xlink="http://www.w3.org/1999/xlink">
    <title>icon-startups</title>
    <defs>
        <linearGradient x1="50%" y1="0%" x2="50%" y2="97.0033872%" id="linearGradient-1">
            <stop stop-color="#C945A3" offset="0%"></stop>
            <stop stop-color="#BD41EE" offset="100%"></stop>
        </linearGradient>
        <linearGradient x1="50%" y1="0%" x2="50%" y2="97.0033872%" id="linearGradient-2">
            <stop stop-color="#C945A3" offset="0%"></stop>
            <stop stop-color="#BD41EE" offset="100%"></stop>
        </linearGradient>
    </defs>
    <g id="Design" stroke="none" stroke-width="1" fill="none" fill-rule="evenodd" fill-opacity="0">
        <g id="Home" transform="translate(-540.000000, -5098.000000)" fill="#D8D8D8">
            <g id="icon-startups" transform="translate(540.879615, 5098.923733)">
                <path d="M32.9977301,0.5 C38.1842567,0.5 43.0443849,1.686253 47.2242727,3.75615471 L47.2242727,3.75615471 L47.8400435,4.08696276 C49.8844226,5.21184735 51.7842881,6.52296311 53.5173251,7.98824027 L53.5173251,7.98824027 L53.9663159,8.40023139 C55.0071843,9.37853625 55.9537136,10.43161 56.795901,11.5443737 C61.6425519,17.128923 64.624722,23.9378188 65.3219705,31.060549 C65.9856264,37.8401147 64.5780643,44.9029864 60.7289045,51.4314706 L60.7289045,51.4314706 L60.2997437,52.1268922 C54.0546948,62.2105584 49.5325905,67.9318972 45.1409526,73.2830763 L45.1409526,73.2830763 L44.5413918,74.0125177 C44.2890054,74.3191868 44.0368101,74.6252327 43.7845032,74.931414 C43.6545226,75.0891489 43.5245129,75.24692 43.3944329,75.4048304 L42.6127786,76.3547899 C39.7412004,79.8501566 36.795688,83.5128201 33.3375056,88.4414175 C33.1509659,88.7580785 33.0736608,88.8893136 33.0177072,88.984087 L33,89.012 C32.9483478,88.9238453 32.8885522,88.8216269 32.7510921,88.5868379 L32.675588,88.4578801 L32.3027379,87.9283501 C28.5323641,82.5939517 25.3644833,78.7498134 22.2131859,74.9262417 C21.9622517,74.6217751 21.7114244,74.3174382 21.4606048,74.0127255 L21.4606048,74.0127255 L20.8609783,73.2833331 C16.3684168,67.810158 11.7394015,61.950085 5.27325685,51.4320718 C1.42798385,44.7096717 0.0493978561,37.5823033 0.709449108,30.8344139 C1.41049244,23.6674509 4.41017294,16.9297901 9.1885889,11.5624608 L9.1885889,11.5624608 L9.56971787,11.0713802 C10.4396432,9.97835711 11.4123178,8.94691173 12.4797945,7.9920393 L12.4797945,7.9920393 L13.0024238,7.5592097 C14.7701726,6.12413698 16.6966154,4.8464648 18.7728494,3.7583826 L18.7728494,3.7583826 L19.2546503,3.52524487 C23.3249872,1.60054632 28.0075126,0.5 32.9977301,0.5 Z" id="Fill-4" stroke="url(#linearGradient-1)" transform="translate(33.000000, 45.000000) scale(1, -1) translate(-33.000000, -45.000000) "></path>
                <g id="rocket_launch_black_24dp" transform="translate(15.120385, 38.076267)" stroke="url(#linearGradient-2)" stroke-width="2">
                    <path d="M27.4176053,23.9493699 L27.5610496,24.6829742 C27.7295529,25.5382586 27.4577869,26.419678 26.8484751,27.0288515 L26.8484751,27.0288515 L20.6275579,33.2483565 L18.818026,29.0231833 C20.5380582,28.2380124 24.2491715,26.4117678 27.4176053,23.9493699 L27.4176053,23.9493699 Z M7.17591188,23.4450048 C8.388273,23.4450048 9.48408288,23.9337094 10.2766036,24.7260502 C11.0690423,25.518309 11.5578458,26.6137461 11.5578458,27.8257171 C11.5578458,29.0376881 11.0606933,30.1325043 10.2721187,30.9209 C8.76511706,32.4275595 3.64007912,33.4145624 1.18841556,33.8112163 C1.58586391,31.3592587 2.57298328,26.2369139 4.0797051,24.7305341 C4.86836154,23.9420567 5.96355087,23.4450048 7.17591188,23.4450048 Z M33.7506806,1.25214737 C34.0566835,2.61007034 34.3545477,5.50141227 32.819822,9.35375613 C31.7385381,12.0679073 29.7632002,15.2366128 26.3102817,18.6887476 C23.356281,21.6420777 18.6728107,23.9374825 16.8396438,24.7698181 L16.6762746,24.8435387 L10.1586533,18.3273969 C10.9222239,16.6253435 13.2685591,11.7413961 16.3146349,8.69601176 C19.7729367,5.23849497 22.9468881,3.26039525 25.6645007,2.17822384 C29.5104415,0.646744608 32.3967992,0.940867919 33.7506806,1.25214737 Z M23.3217136,7.09643896 C22.0600515,7.09643896 20.9124595,7.61139724 20.0806932,8.44297472 C19.2488445,9.27463459 18.7337577,10.4220908 18.7337577,11.6835804 C18.7337577,12.9450701 19.2488445,14.0925263 20.0806932,14.9241861 C20.9124595,15.7557636 22.0600515,16.2707219 23.3217136,16.2707219 C24.5833757,16.2707219 25.7309677,15.7557636 26.562734,14.9241861 C27.3945827,14.0925263 27.9096696,12.9450701 27.9096696,11.6835804 C27.9096696,10.4220908 27.3945827,9.27463459 26.562734,8.44297472 C25.7309677,7.61139724 24.5833757,7.09643896 23.3217136,7.09643896 Z M7.97263729,8.15794053 C8.58206875,7.54864742 9.4638694,7.27695179 10.3208958,7.44572066 L10.3208958,7.44572066 L11.0530556,7.58881715 C8.59020329,10.7565428 6.76364779,14.466669 5.97837552,16.1861616 L5.97837552,16.1861616 L1.75216055,14.3770052 Z" id="Shape"></path>
                </g>
            </g>
        </g>
    </g>
</svg>