<?xml version="1.0" encoding="UTF-8"?>
<svg width="67px" height="91px" viewBox="0 0 67 91" version="1.1" xmlns="http://www.w3.org/2000/svg" xmlns:xlink="http://www.w3.org/1999/xlink">
    <title>icon-high-risk</title>
    <defs>
        <linearGradient x1="50%" y1="0%" x2="50%" y2="100%" id="linearGradient-1">
            <stop stop-color="#FFBF2C" offset="0%"></stop>
            <stop stop-color="#FE6047" offset="100%"></stop>
        </linearGradient>
        <linearGradient x1="50%" y1="0%" x2="50%" y2="100%" id="linearGradient-2">
            <stop stop-color="#FFBF2C" offset="0%"></stop>
            <stop stop-color="#FE6047" offset="100%"></stop>
        </linearGradient>
    </defs>
    <g id="Design" stroke="none" stroke-width="1" fill="none" fill-rule="evenodd" fill-opacity="0">
        <g id="Home" transform="translate(-540.000000, -5547.000000)" fill="#D8D8D8">
            <g id="icon-high-risk" transform="translate(540.879615, 5547.923733)">
                <path d="M32.9977301,0.5 C38.1842567,0.5 43.0443849,1.686253 47.2242727,3.75615471 L47.2242727,3.75615471 L47.8400435,4.08696276 C49.8844226,5.21184735 51.7842881,6.52296311 53.5173251,7.98824027 L53.5173251,7.98824027 L53.9663159,8.40023139 C55.0071843,9.37853625 55.9537136,10.43161 56.795901,11.5443737 C61.6425519,17.128923 64.624722,23.9378188 65.3219705,31.060549 C65.9856264,37.8401147 64.5780643,44.9029864 60.7289045,51.4314706 L60.7289045,51.4314706 L60.2997437,52.1268922 C54.0546948,62.2105584 49.5325905,67.9318972 45.1409526,73.2830763 L45.1409526,73.2830763 L44.5413918,74.0125177 C44.2890054,74.3191868 44.0368101,74.6252327 43.7845032,74.931414 C43.6545226,75.0891489 43.5245129,75.24692 43.3944329,75.4048304 L42.6127786,76.3547899 C39.7412004,79.8501566 36.795688,83.5128201 33.3375056,88.4414175 C33.1509659,88.7580785 33.0736608,88.8893136 33.0177072,88.984087 L33,89.012 C32.9483478,88.9238453 32.8885522,88.8216269 32.7510921,88.5868379 L32.675588,88.4578801 L32.3027379,87.9283501 C28.5323641,82.5939517 25.3644833,78.7498134 22.2131859,74.9262417 C21.9622517,74.6217751 21.7114244,74.3174382 21.4606048,74.0127255 L21.4606048,74.0127255 L20.8609783,73.2833331 C16.3684168,67.810158 11.7394015,61.950085 5.27325685,51.4320718 C1.42798385,44.7096717 0.0493978561,37.5823033 0.709449108,30.8344139 C1.41049244,23.6674509 4.41017294,16.9297901 9.1885889,11.5624608 L9.1885889,11.5624608 L9.56971787,11.0713802 C10.4396432,9.97835711 11.4123178,8.94691173 12.4797945,7.9920393 L12.4797945,7.9920393 L13.0024238,7.5592097 C14.7701726,6.12413698 16.6966154,4.8464648 18.7728494,3.7583826 L18.7728494,3.7583826 L19.2546503,3.52524487 C23.3249872,1.60054632 28.0075126,0.5 32.9977301,0.5 Z" id="Fill-4" stroke="url(#linearGradient-1)" transform="translate(33.000000, 45.000000) scale(1, -1) translate(-33.000000, -45.000000) "></path>
                <g id="electric_bolt_black_24dp" transform="translate(17.128507, 33.073481)" stroke="url(#linearGradient-2)" stroke-width="2">
                    <path d="M22.0490473,1.15873444 L12.1666068,16.8314397 L30.0792545,18.5584872 C30.2834571,18.5774828 30.46065,18.650121 30.6014596,18.7620739 C30.7565878,18.885411 30.8675455,19.0531165 30.9290127,19.2364582 C30.9901906,19.4189373 31.0028672,19.6184818 30.9534554,19.8091626 C30.908696,19.9818898 30.8113047,20.1450039 30.6646628,20.2779209 L30.6646628,20.2779209 L9.9347084,38.8468375 L19.8171489,23.1741323 L1.90450121,21.4470848 C1.70029862,21.4280892 1.52310565,21.355451 1.38229607,21.2434981 C1.22716783,21.1201609 1.11621018,20.9524555 1.05474302,20.7691138 C0.993565048,20.5866347 0.980888494,20.3870901 1.03030028,20.1964094 C1.0750597,20.0236821 1.17245094,19.860568 1.31909292,19.7276511 L1.31909292,19.7276511 L22.0490473,1.15873444 Z" id="Path"></path>
                </g>
            </g>
        </g>
    </g>
</svg>