<?xml version="1.0" encoding="UTF-8"?>
<svg width="67px" height="91px" viewBox="0 0 67 91" version="1.1" xmlns="http://www.w3.org/2000/svg" xmlns:xlink="http://www.w3.org/1999/xlink">
    <title>icon-smb</title>
    <defs>
        <linearGradient x1="50%" y1="0%" x2="50%" y2="100%" id="linearGradient-1">
            <stop stop-color="#FFBF2C" offset="0%"></stop>
            <stop stop-color="#FE6047" offset="100%"></stop>
        </linearGradient>
        <linearGradient x1="50%" y1="0%" x2="50%" y2="100%" id="linearGradient-2">
            <stop stop-color="#FFBF2C" offset="0%"></stop>
            <stop stop-color="#FE6047" offset="100%"></stop>
        </linearGradient>
    </defs>
    <g id="Design" stroke="none" stroke-width="1" fill="none" fill-rule="evenodd" fill-opacity="0">
        <g id="Home" transform="translate(-251.000000, -4875.000000)" fill="#D8D8D8">
            <g id="icon-smb" transform="translate(251.879615, 4875.923733)">
                <path d="M32.9977301,0.5 C38.1872934,0.5 43.0500759,1.6876425 47.2314299,3.75984554 C49.5113919,4.95652547 51.6191445,6.3823797 53.5247594,7.99479315 C54.7407894,9.08558082 55.8361031,10.2762138 56.795901,11.5443737 C61.63389,16.9845294 64.6394739,23.7841081 65.3413502,30.9541134 C66.0056017,37.7397641 64.6054472,44.8565443 60.7284918,51.4321405 C54.260452,61.9500756 49.6324892,67.8101714 45.1409526,73.2830763 L45.1409526,73.2830763 L44.5413918,74.0125177 C44.2890054,74.3191868 44.0368101,74.6252327 43.7845032,74.931414 C43.6545226,75.0891489 43.5245129,75.24692 43.3944329,75.4048304 L42.6127786,76.3547899 C39.7412004,79.8501566 36.795688,83.5128201 33.3375056,88.4414175 C33.1335792,88.7876509 33.0597352,88.9130771 33.0096499,88.9979053 L33,89.013 C32.9554716,88.9360233 32.8984754,88.838577 32.7537744,88.5914196 L32.6861779,88.4759665 C28.7337493,82.8383259 25.4646404,78.8713372 22.2131859,74.9262417 C21.9622517,74.6217751 21.7114244,74.3174382 21.4606048,74.0127255 L21.4606048,74.0127255 L20.8609783,73.2833331 C16.3684168,67.810158 11.7394015,61.950085 5.27776445,51.440035 C1.39504679,44.8572904 -0.00526974034,37.7414569 0.658400607,30.9565684 C1.35983208,23.7856373 4.36560865,16.9851045 9.17750034,11.574922 C10.1650273,10.2727128 11.2637456,9.07900642 12.487073,7.98580549 C14.3958305,6.3748374 16.4973696,4.95021975 18.780391,3.75459536 C22.9595452,1.68822263 27.8125431,0.5 32.9977301,0.5 Z" id="Fill-4" stroke="url(#linearGradient-1)" transform="translate(33.000000, 45.000000) scale(1, -1) translate(-33.000000, -45.000000) "></path>
                <g id="work_black_24dp" transform="translate(17.120385, 36.076267)" stroke="url(#linearGradient-2)" stroke-width="2">
                    <path d="M19.2,1 C19.8120457,1 20.3647583,1.23989921 20.7635914,1.63348453 C21.1138345,1.97911916 21.3442646,2.44282223 21.3911473,2.96110449 L21.4,3.15789474 L21.4,7.31578947 L28.8,7.31578947 C29.4120457,7.31578947 29.9647583,7.55568868 30.3635914,7.949274 C30.7138345,8.29490864 30.9442646,8.7586117 30.9911473,9.27689396 L31,9.47368421 L31,26.8421053 C31,27.4394072 30.7576149,27.9776765 30.3635914,28.3665155 C30.0090731,28.7163691 29.532971,28.9447917 29.001688,28.9912331 L28.8,29 L3.2,29 C2.58795432,29 2.03524168,28.7601008 1.63640855,28.3665155 C1.28616545,28.0208808 1.05573543,27.5571778 1.00885245,27.0395425 L0.999999576,26.8430265 L1.016,9.47368421 C1.016,8.87497943 1.25555408,8.33494265 1.64834907,7.94536814 C1.99919863,7.59739516 2.47095302,7.37059594 2.99933,7.32449207 L3.2,7.31578947 L10.6,7.31578947 L10.6,3.15789474 C10.6,2.56059281 10.8423851,2.02232349 11.2364086,1.63348453 C11.5909269,1.28363091 12.067029,1.05520829 12.598312,1.00876689 L12.8,1 L19.2,1 Z M20,2 L12,2 L12,7 L20,7 L20,2 Z" id="Shape"></path>
                </g>
            </g>
        </g>
    </g>
</svg>