<?xml version="1.0" encoding="UTF-8"?>
<svg width="67px" height="91px" viewBox="0 0 67 91" version="1.1" xmlns="http://www.w3.org/2000/svg" xmlns:xlink="http://www.w3.org/1999/xlink">
    <title>icon-non-profit</title>
    <defs>
        <linearGradient x1="50%" y1="0%" x2="50%" y2="100%" id="linearGradient-1">
            <stop stop-color="#08B9F7" offset="0%"></stop>
            <stop stop-color="#CA37FF" offset="100%"></stop>
        </linearGradient>
        <linearGradient x1="50%" y1="0%" x2="50%" y2="100%" id="linearGradient-2">
            <stop stop-color="#08B9F7" offset="0%"></stop>
            <stop stop-color="#CA37FF" offset="100%"></stop>
        </linearGradient>
    </defs>
    <g id="Design" stroke="none" stroke-width="1" fill="none" fill-rule="evenodd" fill-opacity="0">
        <g id="Home" transform="translate(-540.000000, -5325.000000)" fill="#D8D8D8">
            <g id="icon-non-profit" transform="translate(540.879615, 5325.923733)">
                <path d="M32.9977301,0.5 C38.1842567,0.5 43.0443849,1.686253 47.2242727,3.75615471 L47.2242727,3.75615471 L47.8400435,4.08696276 C49.8844226,5.21184735 51.7842881,6.52296311 53.5173251,7.98824027 L53.5173251,7.98824027 L53.9663159,8.40023139 C55.0071843,9.37853625 55.9537136,10.43161 56.795901,11.5443737 C61.6425519,17.128923 64.624722,23.9378188 65.3219705,31.060549 C65.9856264,37.8401147 64.5780643,44.9029864 60.7289045,51.4314706 L60.7289045,51.4314706 L60.2997437,52.1268922 C54.0546948,62.2105584 49.5325905,67.9318972 45.1409526,73.2830763 L45.1409526,73.2830763 L44.5413918,74.0125177 C44.2890054,74.3191868 44.0368101,74.6252327 43.7845032,74.931414 C43.6545226,75.0891489 43.5245129,75.24692 43.3944329,75.4048304 L42.6127786,76.3547899 C39.7412004,79.8501566 36.795688,83.5128201 33.3375056,88.4414175 C33.1509659,88.7580785 33.0736608,88.8893136 33.0177072,88.984087 L33,89.012 C32.9483478,88.9238453 32.8885522,88.8216269 32.7510921,88.5868379 L32.675588,88.4578801 L32.3027379,87.9283501 C28.5323641,82.5939517 25.3644833,78.7498134 22.2131859,74.9262417 C21.9622517,74.6217751 21.7114244,74.3174382 21.4606048,74.0127255 L21.4606048,74.0127255 L20.8609783,73.2833331 C16.3684168,67.810158 11.7394015,61.950085 5.27325685,51.4320718 C1.42798385,44.7096717 0.0493978561,37.5823033 0.709449108,30.8344139 C1.41049244,23.6674509 4.41017294,16.9297901 9.1885889,11.5624608 L9.1885889,11.5624608 L9.56971787,11.0713802 C10.4396432,9.97835711 11.4123178,8.94691173 12.4797945,7.9920393 L12.4797945,7.9920393 L13.0024238,7.5592097 C14.7701726,6.12413698 16.6966154,4.8464648 18.7728494,3.7583826 L18.7728494,3.7583826 L19.2546503,3.52524487 C23.3249872,1.60054632 28.0075126,0.5 32.9977301,0.5 Z" id="Fill-4" stroke="url(#linearGradient-1)" transform="translate(33.000000, 45.000000) scale(1, -1) translate(-33.000000, -45.000000) "></path>
                <g id="volunteer_activism_black_24dp" transform="translate(14.120385, 35.076267)" stroke="url(#linearGradient-2)" stroke-width="2">
                    <g id="Group">
                        <path d="M6.04426464,16.75 L6.04426464,34 L1,34 L1,16.75 L6.04426464,16.75 Z M13.8562061,16.75 L26.4648025,21.4269399 C26.6653747,21.5062348 26.8357668,21.63732 26.9601029,21.8015578 C27.0683954,21.9446035 27.1417818,22.1130926 27.1671808,22.2937449 C27.1369724,22.6506865 27.0281286,22.9510264 26.8412924,23.167327 C26.6783238,23.355996 26.4568794,23.4688841 26.2105158,23.4943429 L26.2105158,23.4943429 L21.3150783,23.4997963 L17.4309646,22.0304761 L16.1743257,25.5875002 L20.9641839,27.25 L33.460257,27.25 C34.1341538,27.25 34.7440849,27.5105184 35.1971904,27.9348761 C35.4878055,28.2070526 35.7141699,28.5464465 35.8514202,28.9274376 L35.8514202,28.9274376 L22.8441843,33.9472851 L11.566397,30.7773277 L11.566397,16.75 L13.8562061,16.75 Z M31.170871,1 C32.5203007,1 33.7264304,1.52115307 34.5934952,2.38276941 C35.4582945,3.2421345 35.9823893,4.43729232 35.9823893,5.775 C35.9823893,9.333226 31.5086934,13.3364315 26.7165703,17.6356651 L26.418,17.903 L26.1148204,17.6298507 C21.4403495,13.4067976 17.0407524,9.48688147 16.8556516,6.00167819 L16.8495954,5.775 C16.8495954,4.43729232 17.3736903,3.2421345 18.2384896,2.38276941 C19.1055544,1.52115307 20.3116841,1 21.6611138,1 C23.2009758,1 24.6958313,1.72183541 25.6580588,2.83983176 C25.9594597,3.19002446 26.2146422,3.5861043 26.4160439,4.0117619 C26.6173426,3.5861043 26.8725251,3.19002446 27.1739259,2.83983176 C28.1361535,1.72183541 29.6310089,1 31.170871,1 Z" id="Combined-Shape"></path>
                    </g>
                </g>
            </g>
        </g>
    </g>
</svg>