<?xml version="1.0" encoding="UTF-8"?>
<svg width="67px" height="91px" viewBox="0 0 67 91" version="1.1" xmlns="http://www.w3.org/2000/svg" xmlns:xlink="http://www.w3.org/1999/xlink">
    <title>icon-e-commerece</title>
    <defs>
        <linearGradient x1="50%" y1="0%" x2="50%" y2="100%" id="linearGradient-1">
            <stop stop-color="#588FE8" offset="0%"></stop>
            <stop stop-color="#00D5F1" offset="100%"></stop>
        </linearGradient>
        <linearGradient x1="50%" y1="0%" x2="50%" y2="100%" id="linearGradient-2">
            <stop stop-color="#588FE8" offset="0%"></stop>
            <stop stop-color="#00D5F1" offset="100%"></stop>
        </linearGradient>
    </defs>
    <g id="Design" stroke="none" stroke-width="1" fill="none" fill-rule="evenodd" fill-opacity="0">
        <g id="Home" transform="translate(-540.000000, -4875.000000)" fill="#D8D8D8">
            <g id="icon-e-commerece" transform="translate(540.879615, 4875.923733)">
                <g id="Group-5" stroke="url(#linearGradient-1)">
                    <path d="M32.9977301,0.5 C38.1842567,0.5 43.0443849,1.686253 47.2242727,3.75615471 L47.2242727,3.75615471 L47.8400435,4.08696276 C49.8844226,5.21184735 51.7842881,6.52296311 53.5173251,7.98824027 L53.5173251,7.98824027 L53.9663159,8.40023139 C55.0071843,9.37853625 55.9537136,10.43161 56.795901,11.5443737 C61.6425519,17.128923 64.624722,23.9378188 65.3219705,31.060549 C65.9856264,37.8401147 64.5780643,44.9029864 60.7289045,51.4314706 L60.7289045,51.4314706 L60.2997437,52.1268922 C54.0546948,62.2105584 49.5325905,67.9318972 45.1409526,73.2830763 L45.1409526,73.2830763 L44.5413918,74.0125177 C44.2890054,74.3191868 44.0368101,74.6252327 43.7845032,74.931414 C43.6545226,75.0891489 43.5245129,75.24692 43.3944329,75.4048304 L42.6127786,76.3547899 C39.7412004,79.8501566 36.795688,83.5128201 33.3375056,88.4414175 C33.1509659,88.7580785 33.0736608,88.8893136 33.0177072,88.984087 L33,89.012 C32.9483478,88.9238453 32.8885522,88.8216269 32.7510921,88.5868379 L32.675588,88.4578801 L32.3027379,87.9283501 C28.5323641,82.5939517 25.3644833,78.7498134 22.2131859,74.9262417 C21.9622517,74.6217751 21.7114244,74.3174382 21.4606048,74.0127255 L21.4606048,74.0127255 L20.8609783,73.2833331 C16.3684168,67.810158 11.7394015,61.950085 5.27325685,51.4320718 C1.42798385,44.7096717 0.0493978561,37.5823033 0.709449108,30.8344139 C1.41049244,23.6674509 4.41017294,16.9297901 9.1885889,11.5624608 L9.1885889,11.5624608 L9.56971787,11.0713802 C10.4396432,9.97835711 11.4123178,8.94691173 12.4797945,7.9920393 L12.4797945,7.9920393 L13.0024238,7.5592097 C14.7701726,6.12413698 16.6966154,4.8464648 18.7728494,3.7583826 L18.7728494,3.7583826 L19.2546503,3.52524487 C23.3249872,1.60054632 28.0075126,0.5 32.9977301,0.5 Z" id="Fill-4" transform="translate(33.000000, 45.000000) scale(1, -1) translate(-33.000000, -45.000000) "></path>
                </g>
                <g id="shopping_cart_black_24dp" transform="translate(17.120385, 38.076267)" stroke="url(#linearGradient-2)" stroke-width="2">
                    <path d="M8.9924812,25 C9.54483339,25 10.04645,25.2262807 10.4103201,25.5892412 C10.7732807,25.9512944 11,26.4502834 11,27 C11,27.5497166 10.7732807,28.0487056 10.4103201,28.4107588 C10.04645,28.7737193 9.54483339,29 8.9924812,29 C8.44286134,29 7.94595596,28.7754652 7.58596941,28.4145742 C7.22408697,28.0517825 7,27.5510648 7,27 C7,26.4489352 7.22408697,25.9482175 7.58596941,25.5854258 C7.94595596,25.2245348 8.44286134,25 8.9924812,25 Z M23.9924812,25 C24.5448334,25 25.04645,25.2262807 25.4103201,25.5892412 C25.7732807,25.9512944 26,26.4502834 26,27 C26,27.5497166 25.7732807,28.0487056 25.4103201,28.4107588 C25.04645,28.7737193 24.5448334,29 23.9924812,29 C23.4428613,29 22.945956,28.7754652 22.5859694,28.4145742 C22.224087,28.0517825 22,27.5510648 22,27 C22,26.4489352 22.224087,25.9482175 22.5859694,25.5854258 C22.945956,25.2245348 23.4428613,25 23.9924812,25 Z M4.26414641,1 L5.67414641,4.06666667 L28.5,4.06666667 L23.5687958,14.8145975 C23.3964648,15.1358314 23.1423602,15.4023685 22.8356084,15.5869259 C22.538866,15.7654612 22.1927766,15.8666667 21.825,15.8666667 L21.825,15.8666667 L10.0535898,15.8666667 L7.65156383,20.3136767 L26,20.9017942 L26,22 L9,22 C8.45244862,22 7.95638105,21.7681761 7.59608403,21.3998725 C7.22789749,21.023504 7,20.5042029 7,19.9333333 C7,19.5725825 7.08864746,19.2315985 7.25122168,18.9433167 L7.25122168,18.9433167 L9.51795919,14.7381921 L3.63840624,2.06666667 L1,2.06666667 L1,1 L4.26414641,1 Z" id="Shape"></path>
                </g>
            </g>
        </g>
    </g>
</svg>