<?xml version="1.0" encoding="UTF-8"?>
<svg width="49px" height="50px" viewBox="0 0 49 50" version="1.1" xmlns="http://www.w3.org/2000/svg" xmlns:xlink="http://www.w3.org/1999/xlink">
    <title>menu-webapp</title>
    <defs>
        <linearGradient x1="-44.9193188%" y1="87.7635939%" x2="99.1181456%" y2="30.4588859%" id="linearGradient-1">
            <stop stop-color="#CA36FF" offset="0%"></stop>
            <stop stop-color="#08B8F6" offset="100%"></stop>
        </linearGradient>
    </defs>
    <g id="Design" stroke="none" stroke-width="1" fill="none" fill-rule="evenodd">
        <g id="menu---services" transform="translate(-47.000000, -45.000000)">
            <g id="menu-webapp" transform="translate(47.000000, 45.500000)">
                <rect fill="#FFFFFF" opacity="0" x="0" y="0" width="49" height="49" rx="4"></rect>
                <g id="web_black_24dp" transform="translate(5.000000, 5.000000)">
                    <g id="Group">
                        <rect id="Rectangle" x="0" y="0" width="40" height="40"></rect>
                        <rect id="Rectangle" x="0" y="0" width="40" height="40"></rect>
                        <rect id="Rectangle" x="0" y="0" width="40" height="40"></rect>
                    </g>
                    <path d="M33.3333333,6.66666667 L6.66666667,6.66666667 C4.83333333,6.66666667 3.35,8.16666667 3.35,10 L3.33333333,30 C3.33333333,31.8333333 4.83333333,33.3333333 6.66666667,33.3333333 L33.3333333,33.3333333 C35.1666667,33.3333333 36.6666667,31.8333333 36.6666667,30 L36.6666667,10 C36.6666667,8.16666667 35.1666667,6.66666667 33.3333333,6.66666667 Z M6.66666667,15 L24.1666667,15 L24.1666667,20.8333333 L6.66666667,20.8333333 L6.66666667,15 Z M6.66666667,24.1666667 L24.1666667,24.1666667 L24.1666667,30 L6.66666667,30 L6.66666667,24.1666667 Z M33.3333333,30 L27.5,30 L27.5,15 L33.3333333,15 L33.3333333,30 Z" id="Shape" fill="url(#linearGradient-1)"></path>
                </g>
            </g>
        </g>
    </g>
</svg>